<svg width="564" height="512" viewBox="0 0 564 512" fill="none" xmlns="http://www.w3.org/2000/svg">
<rect width="308" height="512" fill="#E46557"/>
<rect x="308" width="256" height="512" fill="#D9D9D9"/>
<path d="M389.821 378H307.321V145.273H390.503C413.912 145.273 434.063 149.932 450.957 159.25C467.851 168.492 480.844 181.788 489.935 199.136C499.101 216.485 503.685 237.242 503.685 261.409C503.685 285.652 499.101 306.485 489.935 323.909C480.844 341.333 467.776 354.705 450.73 364.023C433.76 373.341 413.457 378 389.821 378ZM356.526 335.841H387.776C402.321 335.841 414.556 333.265 424.48 328.114C434.48 322.886 441.98 314.818 446.98 303.909C452.056 292.924 454.594 278.758 454.594 261.409C454.594 244.212 452.056 230.159 446.98 219.25C441.98 208.341 434.518 200.311 424.594 195.159C414.67 190.008 402.435 187.432 387.889 187.432H356.526V335.841Z" fill="#E46557"/>
<path d="M55.821 145.273H116.503L180.594 301.636H183.321L247.412 145.273H308.094V378H260.366V226.523H258.435L198.207 376.864H165.707L105.48 225.955H103.548V378H55.821V145.273Z" fill="#E6D2CF"/>
</svg>
